HIERARCHY
ROOT Hips
{
	OFFSET 0.000000 0.000000 0.000000
	CHANNELS 6 Xposition Yposition Zposition Xrotation Yrotation Zrotation
	JOINT LeftUpLeg_virtual
	{
		OFFSET 0.000000 0.000000 0.000000
		CHANNELS 3 Xrotation Yrotation Zrotation
		JOINT LeftUpLeg
		{
			OFFSET 13.026900 -6.336304 -1.092800
			CHANNELS 3 Xrotation Yrotation Zrotation
			JOINT LeftLeg
			{
				OFFSET 0.524474 -46.096886 9.782700
				CHANNELS 3 Xrotation Yrotation Zrotation
				JOINT LeftFoot
				{
					OFFSET -0.524474 -53.427422 -12.948200
					CHANNELS 3 Xrotation Yrotation Zrotation
					JOINT LeftToeBase
					{
						OFFSET 0.192200 -14.009700 16.364100
						CHANNELS 3 Xrotation Yrotation Zrotation
						JOINT LeftToe_End
						{
							OFFSET -1.784700 -0.561700 9.474800
							CHANNELS 3 Xrotation Yrotation Zrotation
							End Site
							{
								OFFSET 0 0 0
							}
						}
					}
				}
			}
		}
	}
	JOINT RightUpLeg_virtual
	{
		OFFSET 0.000000 0.000000 0.000000
		CHANNELS 3 Xrotation Yrotation Zrotation
		JOINT RightUpLeg
		{
			OFFSET -12.883000 -6.336304 -1.092800
			CHANNELS 3 Xrotation Yrotation Zrotation
			JOINT RightLeg
			{
				OFFSET -0.524587 -46.096825 9.782800
				CHANNELS 3 Xrotation Yrotation Zrotation
				JOINT RightFoot
				{
					OFFSET 0.524587 -53.427383 -12.948300
					CHANNELS 3 Xrotation Yrotation Zrotation
					JOINT RightToeBase
					{
						OFFSET -0.192200 -14.009700 16.364100
						CHANNELS 3 Xrotation Yrotation Zrotation
						JOINT RightToe_End
						{
							OFFSET 1.784700 -0.561700 9.474800
							CHANNELS 3 Xrotation Yrotation Zrotation
							End Site
							{
								OFFSET 0 0 0
							}
						}
					}
				}
			}
		}
	}
	JOINT Spine_virtual
	{
		OFFSET 0.000000 0.000000 0.000000
		CHANNELS 3 Xrotation Yrotation Zrotation
		JOINT Spine
		{
			OFFSET 0.072000 7.257294 -0.789700
			CHANNELS 3 Xrotation Yrotation Zrotation
			JOINT Spine1
			{
				OFFSET 0.000000 12.508769 -0.658067
				CHANNELS 3 Xrotation Yrotation Zrotation
				JOINT Spine1_split
				{
					OFFSET 0.000000 12.508769 -0.658067
					CHANNELS 3 Xrotation Yrotation Zrotation
					JOINT Spine2
					{
						OFFSET 0.000000 12.508769 -0.658067
						CHANNELS 3 Xrotation Yrotation Zrotation
						JOINT Neck_virtual
						{
							OFFSET 0.000000 0.000000 0.000000
							CHANNELS 3 Xrotation Yrotation Zrotation
							JOINT Neck
							{
								OFFSET 0.000000 14.033295 7.520400
								CHANNELS 3 Xrotation Yrotation Zrotation
								JOINT Head
								{
									OFFSET 0.000000 8.198502 5.703100
									CHANNELS 3 Xrotation Yrotation Zrotation
									JOINT HeadTop_End
									{
										OFFSET 0.000000 17.760803 13.332701
										CHANNELS 3 Xrotation Yrotation Zrotation
										End Site
										{
											OFFSET 0 0 0
										}
									}
								}
							}
						}
						JOINT LeftShoulder_virtual
						{
							OFFSET 0.000000 0.000000 0.000000
							CHANNELS 3 Xrotation Yrotation Zrotation
							JOINT LeftShoulder
							{
								OFFSET 6.292450 5.785301 -0.669000
								CHANNELS 3 Xrotation Yrotation Zrotation
								JOINT LeftShoulder_split
								{
									OFFSET 6.292450 5.785301 -0.669000
									CHANNELS 3 Xrotation Yrotation Zrotation
									JOINT LeftArm
									{
										OFFSET 13.907140 -6.093903 1.965100
										CHANNELS 3 Xrotation Yrotation Zrotation
										JOINT LeftForeArm
										{
											OFFSET 34.140198 0.000000 0.000000
											CHANNELS 3 Xrotation Yrotation Zrotation
											JOINT LeftHand
											{
												OFFSET 40.960209 0.000000 0.000000
												CHANNELS 3 Xrotation Yrotation Zrotation
												End Site
												{
													OFFSET 0 0 0
												}
											}
										}
									}
								}
							}
						}
						JOINT RightShoulder_virtual
						{
							OFFSET 0.000000 0.000000 0.000000
							CHANNELS 3 Xrotation Yrotation Zrotation
							JOINT RightShoulder
							{
								OFFSET -6.292450 5.785301 -0.669000
								CHANNELS 3 Xrotation Yrotation Zrotation
								JOINT RightShoulder_split
								{
									OFFSET -6.292450 5.785301 -0.669000
									CHANNELS 3 Xrotation Yrotation Zrotation
									JOINT RightArm
									{
										OFFSET -13.907140 -6.093903 1.965100
										CHANNELS 3 Xrotation Yrotation Zrotation
										JOINT RightForeArm
										{
											OFFSET -34.140198 0.000000 0.000000
											CHANNELS 3 Xrotation Yrotation Zrotation
											JOINT RightHand
											{
												OFFSET -40.960209 0.000000 0.000000
												CHANNELS 3 Xrotation Yrotation Zrotation
												End Site
												{
													OFFSET 0 0 0
												}
											}
										}
									}
								}
							}
						}
					}
				}
			}
		}
	}
}
MOTION
Frames: 8
Frame Time: 0.03333333
1.666001 116.814339 0.037506 0.000000 0.000000 0.000000 -2.432926 1.692089 -5.431568 -17.061432 10.412262 18.425422 18.857435 10.939619 0.876611 -0.793736 2.736603 -11.828437 2.112978 0.200743 -1.274656 0.000000 0.000000 0.000000 -1.607800 2.108362 -6.036724 -1.745854 -3.269250 8.331840 6.121103 -5.435255 0.633095 -2.759369 0.395509 -9.616027 -1.974837 -0.448720 -0.561093 0.000000 0.000000 0.000000 -2.493599 0.579023 -5.958807 2.102166 -1.133190 4.279978 1.231123 0.067599 5.757759 0.869343 1.089778 -0.108903 0.000000 0.000000 0.000000 -0.219647 0.475095 5.597192 0.048605 0.907917 -2.302924 1.909705 2.345703 -7.852447 0.000000 0.000000 0.000000 0.196503 0.542405 5.531438 4.415367 -11.073588 -4.454542 -0.904362 0.616590 -0.643107 4.263660 4.114911 -85.575092 -1.892840 -13.102194 0.637687 0.000000 0.000000 0.000000 0.632908 0.746201 5.593042 5.153688 3.054275 8.003614 -1.838069 2.518760 -1.913690 0.623321 4.375759 66.467631 1.441232 20.174238 1.558056 0.000000 0.000000 0.000000 
1.470591 116.817352 0.018108 0.000000 0.000000 0.000000 -2.395786 1.830559 -5.479258 -17.134257 10.371375 18.536075 18.819089 10.923980 0.912147 -0.668028 2.702934 -11.937493 2.118179 0.216694 -1.342554 0.000000 0.000000 0.000000 -1.553273 2.241352 -6.079446 -1.737144 -3.258072 8.470588 5.857693 -5.543985 0.607965 -2.706653 0.367790 -9.609247 -1.965858 -0.425731 -0.564957 0.000000 0.000000 0.000000 -2.421601 0.780102 -6.049686 2.077879 -1.183116 4.309365 1.289657 0.068958 5.728485 0.883449 1.024456 -0.142045 0.000000 0.000000 0.000000 -0.207717 0.466494 5.570169 -0.118326 0.874397 -2.065703 1.603701 2.194839 -7.793046 0.000000 0.000000 0.000000 0.213714 0.524202 5.522843 4.412401 -11.044294 -4.513246 -0.842799 0.532249 -0.314457 4.148165 4.165682 -85.295471 -1.999015 -13.168058 0.489952 0.000000 0.000000 0.000000 0.606238 0.729364 5.572555 5.076547 3.198381 8.040028 -1.687637 2.640502 -1.968473 0.687673 4.363826 66.716632 1.341082 20.354333 1.597580 0.000000 0.000000 0.000000 
1.169012 116.814842 -0.029358 0.000000 0.000000 0.000000 -2.291396 2.007095 -5.676397 -17.370713 10.229007 18.872480 18.892983 10.860968 0.953135 -0.464732 2.630280 -12.118254 2.137307 0.230317 -1.395885 0.000000 0.000000 0.000000 -1.427786 2.419299 -6.260564 -1.741013 -3.218878 8.757648 5.543326 -5.662248 0.619048 -2.563191 0.358422 -9.546148 -1.981642 -0.406330 -0.567912 0.000000 0.000000 0.000000 -2.292556 0.979999 -6.257950 2.052797 -1.265338 4.386084 1.405550 0.058720 5.679686 0.922682 0.951947 -0.171528 0.000000 0.000000 0.000000 -0.132729 0.446687 5.524209 -0.477351 0.838560 -1.775767 0.727821 1.933271 -7.459577 0.000000 0.000000 0.000000 0.261035 0.496795 5.491370 4.405666 -11.039838 -4.545973 -0.820251 0.447835 -0.076753 3.806576 4.012476 -84.649198 -2.084682 -13.169426 0.344450 0.000000 0.000000 0.000000 0.614365 0.690291 5.532100 4.936746 3.316064 8.252635 -1.611844 2.686147 -2.059063 0.876986 4.950982 66.837287 1.301782 20.250227 1.613988 0.000000 0.000000 0.000000 
0.828276 116.793076 -0.081470 0.000000 0.000000 0.000000 -2.148148 2.206823 -5.993426 -17.717246 10.000085 19.370729 19.039482 10.769599 1.005689 -0.286380 2.543778 -12.347194 2.159827 0.238268 -1.428108 0.000000 0.000000 0.000000 -1.252629 2.635646 -6.561281 -1.747266 -3.131597 9.162554 5.233341 -5.817856 0.651809 -2.409434 0.315105 -9.534113 -2.022572 -0.392429 -0.556842 0.000000 0.000000 0.000000 -2.111607 1.156734 -6.548770 2.010872 -1.366477 4.491318 1.577582 0.045029 5.614020 0.955321 0.929421 -0.199195 0.000000 0.000000 0.000000 0.005763 0.415306 5.455767 -0.977866 0.799963 -1.459290 -0.633385 1.602988 -6.909773 0.000000 0.000000 0.000000 0.341565 0.463547 5.434954 4.392179 -11.045054 -4.567216 -0.861058 0.278618 0.039976 3.275786 3.627544 -83.737511 -2.119794 -13.135959 0.212727 0.000000 0.000000 0.000000 0.661904 0.638111 5.471570 4.734356 3.399826 8.643312 -1.585951 2.735241 -2.170509 1.182416 6.045604 66.781068 1.328889 19.844859 1.613520 0.000000 0.000000 0.000000 
0.480438 116.744644 -0.122208 0.000000 0.000000 0.000000 -1.956818 2.455592 -6.386296 -18.142004 9.706278 19.961703 19.215130 10.650579 1.069409 -0.200428 2.431702 -12.639782 2.137412 0.238841 -1.424575 0.000000 0.000000 0.000000 -1.037592 2.863796 -6.936119 -1.759188 -2.985579 9.631637 4.968741 -6.029620 0.698396 -2.293335 0.202386 -9.643830 -2.025543 -0.384023 -0.519697 0.000000 0.000000 0.000000 -1.896972 1.316618 -6.880672 1.935252 -1.483331 4.600993 1.796095 0.033031 5.527409 0.979886 0.927402 -0.205640 0.000000 0.000000 0.000000 0.191769 0.377265 5.358253 -1.529919 0.765092 -1.144990 -2.329673 1.253192 -6.229288 0.000000 0.000000 0.000000 0.456770 0.429906 5.351036 4.365934 -11.034057 -4.599703 -0.939924 -0.021168 0.062350 2.632317 3.014807 -82.656381 -2.066963 -13.127157 0.114269 0.000000 0.000000 0.000000 0.751832 0.578927 5.387960 4.483708 3.435434 9.176008 -1.614902 2.735017 -2.250439 1.617667 7.539283 66.501836 1.420475 19.136537 1.594464 0.000000 0.000000 0.000000 
0.151423 116.672150 -0.128304 0.000000 0.000000 0.000000 -1.710371 2.753510 -6.803649 -18.619202 9.375735 20.576665 19.437757 10.505742 1.135181 -0.193133 2.298122 -13.003925 2.052755 0.230454 -1.388093 0.000000 0.000000 0.000000 -0.786919 3.074823 -7.336156 -1.799067 -2.769220 10.120586 4.754587 -6.249504 0.751574 -2.186566 0.026924 -9.854902 -1.992783 -0.379899 -0.462768 0.000000 0.000000 0.000000 -1.659415 1.451340 -7.215418 1.802659 -1.607996 4.694589 2.046306 0.026487 5.416512 1.005671 0.907347 -0.194359 0.000000 0.000000 0.000000 0.404398 0.334734 5.229583 -2.060576 0.747520 -0.856505 -4.192996 0.908535 -5.476056 0.000000 0.000000 0.000000 0.605582 0.395396 5.238797 4.321380 -10.984186 -4.660826 -0.974731 -0.417635 0.052363 1.976833 2.266874 -81.499245 -1.919026 -13.208876 0.049510 0.000000 0.000000 0.000000 0.884789 0.519448 5.281186 4.201377 3.414861 9.808368 -1.723272 2.680406 -2.296032 2.167494 9.249565 65.963044 1.562758 18.162214 1.561670 0.000000 0.000000 0.000000 
-0.147340 116.584007 -0.121548 0.000000 0.000000 0.000000 -1.403222 3.050240 -7.211564 -19.123345 9.035510 21.173861 19.718596 10.344888 1.205540 -0.227302 2.175596 -13.415122 1.942914 0.217808 -1.333331 0.000000 0.000000 0.000000 -0.497273 3.228437 -7.721117 -1.905828 -2.477826 10.601239 4.566613 -6.387849 0.803174 -2.039748 -0.169685 -10.076612 -1.993158 -0.376922 -0.408580 0.000000 0.000000 0.000000 -1.407250 1.555036 -7.535412 1.612830 -1.741155 4.759173 2.315937 0.024128 5.281237 1.022982 0.892920 -0.192170 0.000000 0.000000 0.000000 0.624605 0.294251 5.075231 -2.523367 0.735011 -0.600504 -6.055342 0.542756 -4.698445 0.000000 0.000000 0.000000 0.781617 0.359640 5.101062 4.260772 -10.901377 -4.748360 -0.962570 -0.856115 0.056180 1.351764 1.490569 -80.323189 -1.681306 -13.388101 0.004864 0.000000 0.000000 0.000000 1.049191 0.469294 5.158698 3.910323 3.357042 10.494317 -1.908001 2.610420 -2.292044 2.817760 11.016817 65.179764 1.720102 17.009107 1.524731 0.000000 0.000000 0.000000 
-0.407176 116.476669 -0.087040 0.000000 0.000000 0.000000 -1.050428 3.278369 -7.588957 -19.621730 8.696059 21.717010 20.021854 10.203610 1.286952 -0.300984 2.132895 -13.834591 1.878392 0.205402 -1.285607 0.000000 0.000000 0.000000 -0.158883 3.296091 -8.080646 -2.072565 -2.143749 11.066611 4.370110 -6.385574 0.844623 -1.824220 -0.357283 -10.249966 -2.090548 -0.370834 -0.378314 0.000000 0.000000 0.000000 -1.144210 1.623608 -7.842585 1.381678 -1.871078 4.794567 2.598721 0.026232 5.126179 1.003366 0.897617 -0.202182 0.000000 0.000000 0.000000 0.829491 0.261787 4.906332 -2.895526 0.716496 -0.357156 -7.771513 0.130921 -3.921320 0.000000 0.000000 0.000000 0.983651 0.323932 4.948293 4.187128 -10.798552 -4.848430 -0.914537 -1.237830 0.039237 0.820269 0.775297 -79.152392 -1.388630 -13.690264 -0.040318 0.000000 0.000000 0.000000 1.225173 0.430804 5.028904 3.626859 3.292365 11.202811 -2.135073 2.535895 -2.250332 3.531788 12.746771 64.196723 1.865913 15.777520 1.488460 0.000000 0.000000 0.000000 
